<svg width="91" height="91" viewBox="0 0 91 91" fill="none" xmlns="http://www.w3.org/2000/svg">
<path d="M16.6985 51.6046C13.3277 49.8415 11.375 47.7447 11.375 45.5C11.375 39.2172 26.6554 34.125 45.5 34.125C64.3446 34.125 79.625 39.2172 79.625 45.5C79.625 48.2073 76.7813 50.6946 72.0417 52.6511M45.5 41.7463L45.5379 41.7045" stroke="#CDCCB4" stroke-width="1.5" stroke-linecap="round" stroke-linejoin="round"/>
<path d="M64.0144 22.75C63.9955 18.8712 63.0172 16.126 60.9925 15.0909C55.3922 12.2433 43.9186 23.5463 35.3608 40.3358C26.803 57.1253 24.4067 73.0541 30.007 75.9054C32.0052 76.9254 34.7541 76.1367 37.8557 73.9375" stroke="#CDCCB4" stroke-width="1.5" stroke-linecap="round" stroke-linejoin="round"/>
<path d="M36.3995 16.1221C33.897 14.6586 31.6865 14.2377 30.0068 15.0946C24.4065 17.9459 26.8066 33.8709 35.3644 50.6604C43.9184 67.4575 55.392 78.7567 60.9923 75.9053C65.967 73.3687 64.6247 60.5074 58.2547 45.8867" stroke="#CDCCB4" stroke-width="1.5" stroke-linecap="round" stroke-linejoin="round"/>
</svg>
