<svg width="25" height="25" viewBox="0 0 25 25" fill="none" xmlns="http://www.w3.org/2000/svg">
<path d="M8.03599 2.89999C7.39947 2.89999 6.78902 3.15285 6.33893 3.60294C5.88884 4.05302 5.63599 4.66347 5.63599 5.29999V19.7C5.63599 20.3365 5.88884 20.947 6.33893 21.3971C6.78902 21.8471 7.39947 22.1 8.03599 22.1H19.436C19.5951 22.1 19.7477 22.0368 19.8603 21.9243C19.9728 21.8117 20.036 21.6591 20.036 21.5C20.036 21.3409 19.9728 21.1883 19.8603 21.0757C19.7477 20.9632 19.5951 20.9 19.436 20.9H8.03599C7.71773 20.9 7.4125 20.7736 7.18746 20.5485C6.96241 20.3235 6.83599 20.0183 6.83599 19.7H18.836C19.1542 19.7 19.4595 19.5736 19.6845 19.3485C19.9096 19.1235 20.036 18.8183 20.036 18.5V5.29999C20.036 4.66347 19.7831 4.05302 19.333 3.60294C18.883 3.15285 18.2725 2.89999 17.636 2.89999H8.03599ZM8.93599 5.89999H16.736C16.9747 5.89999 17.2036 5.99482 17.3724 6.1636C17.5412 6.33238 17.636 6.5613 17.636 6.79999C17.636 7.03869 17.5412 7.26761 17.3724 7.43639C17.2036 7.60517 16.9747 7.69999 16.736 7.69999H8.93599C8.69729 7.69999 8.46837 7.60517 8.29959 7.43639C8.13081 7.26761 8.03599 7.03869 8.03599 6.79999C8.03599 6.5613 8.13081 6.33238 8.29959 6.1636C8.46837 5.99482 8.69729 5.89999 8.93599 5.89999Z" fill="#E7E6D4"/>
</svg>
