<svg width="47" height="47" viewBox="0 0 47 47" fill="none" xmlns="http://www.w3.org/2000/svg">
<circle cx="23.451" cy="23.451" r="21.951" stroke="#5F3F2F" stroke-width="3" stroke-dasharray="8 8"/>
<g clip-path="url(#clip0_408_214)">
<path d="M22.0715 19.4852C22.0715 18.4791 21.6839 17.5142 20.994 16.8028C20.3042 16.0914 19.3685 15.6917 18.3929 15.6917C17.4173 15.6917 16.4816 16.0914 15.7917 16.8028C15.1019 17.5142 14.7143 18.4791 14.7143 19.4852C14.7143 20.4913 15.1019 21.4562 15.7917 22.1677C16.4816 22.8791 17.4173 23.2788 18.3929 23.2788C19.3685 23.2788 20.3042 22.8791 20.994 22.1677C21.6839 21.4562 22.0715 20.4913 22.0715 19.4852ZM23.7728 20.7497C23.2172 23.2827 21.0177 25.1755 18.3929 25.1755C15.3466 25.1755 12.875 22.6268 12.875 19.4852C12.875 16.3437 15.3466 13.7949 18.3929 13.7949C21.0177 13.7949 23.2172 15.6877 23.7728 18.2207H26.5241C26.8613 17.8335 27.3518 17.5885 27.8959 17.5885H31.881C32.8965 17.5885 33.7203 18.4381 33.7203 19.4852C33.7203 20.5324 32.8965 21.382 31.881 21.382H27.8959C27.3518 21.382 26.8613 21.137 26.5241 20.7497H23.7728ZM18.3929 16.9562C19.0433 16.9562 19.6671 17.2227 20.127 17.6969C20.5869 18.1712 20.8453 18.8145 20.8453 19.4852C20.8453 20.156 20.5869 20.7992 20.127 21.2735C19.6671 21.7478 19.0433 22.0143 18.3929 22.0143C17.7425 22.0143 17.1187 21.7478 16.6588 21.2735C16.1989 20.7992 15.9405 20.156 15.9405 19.4852C15.9405 18.8145 16.1989 18.1712 16.6588 17.6969C17.1187 17.2227 17.7425 16.9562 18.3929 16.9562ZM28.2024 23.2788C28.7121 23.2788 29.1221 23.7016 29.1221 24.2272V24.5433H32.8007C33.3103 24.5433 33.7203 24.9661 33.7203 25.4917C33.7203 26.0172 33.3103 26.4401 32.8007 26.4401H23.6042C23.0946 26.4401 22.6846 26.0172 22.6846 25.4917C22.6846 24.9661 23.0946 24.5433 23.6042 24.5433H27.2828V24.2272C27.2828 23.7016 27.6928 23.2788 28.2024 23.2788ZM23.9108 32.1304V27.7046H32.4941V32.1304C32.4941 33.1776 31.6703 34.0271 30.6548 34.0271H25.7501C24.7346 34.0271 23.9108 33.1776 23.9108 32.1304ZM14.7143 26.4401H19.6191C20.6345 26.4401 21.4584 27.2897 21.4584 28.3368C21.4584 29.384 20.6345 30.2336 19.6191 30.2336H19.006C19.006 30.933 18.458 31.4981 17.7798 31.4981H15.3274C14.6492 31.4981 14.1012 30.933 14.1012 30.2336V27.0723C14.1012 26.7246 14.3771 26.4401 14.7143 26.4401ZM19.6191 28.9691C19.9563 28.9691 20.2322 28.6846 20.2322 28.3368C20.2322 27.9891 19.9563 27.7046 19.6191 27.7046H19.006V28.9691H19.6191ZM13.7946 32.1304H20.5387C21.0484 32.1304 21.4584 32.5532 21.4584 33.0788C21.4584 33.6043 21.0484 34.0271 20.5387 34.0271H13.7946C13.285 34.0271 12.875 33.6043 12.875 33.0788C12.875 32.5532 13.285 32.1304 13.7946 32.1304Z" fill="#5F3F2F"/>
</g>
<defs>
<clipPath id="clip0_408_214">
<rect width="22.0715" height="20.2322" fill="white" transform="translate(12.875 13.7949)"/>
</clipPath>
</defs>
</svg>
