<svg width="25" height="25" viewBox="0 0 25 25" fill="none" xmlns="http://www.w3.org/2000/svg">
<g clip-path="url(#clip0_272_510)">
<path fill-rule="evenodd" clip-rule="evenodd" d="M18.4359 3.7H7.23594V0.5H5.63594V3.7H3.23594C2.59942 3.7 1.98897 3.95286 1.53888 4.40294C1.08879 4.85303 0.835938 5.46348 0.835938 6.1L0.835938 18.9C0.835938 19.5365 1.08879 20.147 1.53888 20.5971C1.98897 21.0471 2.59942 21.3 3.23594 21.3H22.4359C23.0725 21.3 23.6829 21.0471 24.133 20.5971C24.5831 20.147 24.8359 19.5365 24.8359 18.9V6.1C24.8359 5.46348 24.5831 4.85303 24.133 4.40294C23.6829 3.95286 23.0725 3.7 22.4359 3.7H20.0359V0.5H18.4359V3.7ZM5.63594 10.1C5.63594 9.25131 5.97308 8.43737 6.5732 7.83726C7.17331 7.23714 7.98724 6.9 8.83594 6.9C9.68463 6.9 10.4986 7.23714 11.0987 7.83726C11.6988 8.43737 12.0359 9.25131 12.0359 10.1C12.0359 10.9487 11.6988 11.7626 11.0987 12.3627C10.4986 12.9629 9.68463 13.3 8.83594 13.3C7.98724 13.3 7.17331 12.9629 6.5732 12.3627C5.97308 11.7626 5.63594 10.9487 5.63594 10.1ZM4.64714 17.4888C5.03609 16.7109 5.63398 16.0566 6.37382 15.5994C7.11365 15.1421 7.9662 14.9 8.83594 14.9C9.70567 14.9 10.5582 15.1421 11.2981 15.5994C12.0379 16.0566 12.6358 16.7109 13.0247 17.4888L13.5527 18.5416C13.6139 18.6637 13.6428 18.7994 13.6367 18.9358C13.6306 19.0722 13.5897 19.2048 13.5178 19.321C13.4459 19.4371 13.3456 19.5329 13.2262 19.5992C13.1068 19.6656 12.9725 19.7003 12.8359 19.7H4.83594C4.69951 19.7 4.56536 19.6651 4.44622 19.5986C4.32708 19.5322 4.22692 19.4364 4.15525 19.3203C4.08358 19.2042 4.04279 19.0717 4.03675 18.9354C4.03071 18.7991 4.05962 18.6636 4.12074 18.5416L4.64714 17.4888ZM15.2359 10.1H20.0359V8.5H15.2359V10.1ZM15.2359 14.9H20.0359V13.3H15.2359V14.9Z" fill="#E7E6D4"/>
<path d="M24.8359 22.9V24.5H0.835938V22.9H24.8359Z" fill="#E7E6D4"/>
</g>
<defs>
<clipPath id="clip0_272_510">
<rect width="24" height="24" fill="white" transform="translate(0.835938 0.5)"/>
</clipPath>
</defs>
</svg>
