<svg width="21" height="22" viewBox="0 0 21 22" fill="none" xmlns="http://www.w3.org/2000/svg">
<path d="M17.85 1.55005H3.15005C1.99505 1.55005 1.05005 2.49505 1.05005 3.65005V18.35C1.05005 19.5061 1.99505 20.45 3.15005 20.45H10.5V13.1H8.40005V10.5013H10.5V8.3488C10.5 6.0766 11.7726 4.4806 14.4543 4.4806L16.3475 4.4827V7.21795H15.0906C14.0469 7.21795 13.65 8.00125 13.65 8.72785V10.5023H16.3464L15.75 13.1H13.65V20.45H17.85C19.005 20.45 19.95 19.5061 19.95 18.35V3.65005C19.95 2.49505 19.005 1.55005 17.85 1.55005Z" fill="#5F3F2F"/>
</svg>
