<svg width="31" height="31" viewBox="0 0 31 31" fill="none" xmlns="http://www.w3.org/2000/svg">
<g clip-path="url(#clip0_272_492)">
<path d="M1.42544 0.5C1.09994 0.5 0.835938 0.7829 0.835938 1.1315V22.3685C0.835938 22.7171 1.09994 22.9997 1.42544 23H14.0173C13.5659 22.6204 13.1531 22.197 12.7849 21.7361H11.5309C11.6989 21.3665 11.8594 20.9897 12.0157 20.6081C11.9184 20.4369 11.8269 20.2624 11.7415 20.0849C11.5236 20.6426 11.2881 21.1933 11.0353 21.7361H9.70634C10.1644 20.7935 10.5823 19.8257 10.9351 18.8018C10.2343 18.2249 9.78614 17.3516 9.78614 16.3784C9.78614 15.5528 10.111 14.801 10.6369 14.2391C8.86394 10.2761 5.66144 8.2391 2.01554 6.0746V4.6724C5.77064 6.8876 9.35474 9.0038 11.443 13.151C11.5114 12.968 11.587 12.788 11.6674 12.6101C9.44984 8.477 5.76044 6.356 2.01554 4.1474V3.71C6.45764 6.6611 10.2997 8.1947 14.5081 9.1424C15.9097 8.135 17.6053 7.5344 19.3351 7.4846C19.5714 7.47741 19.8079 7.47942 20.044 7.4906C20.5828 6.9143 21.1249 6.335 21.6778 5.7446C22.1542 5.2352 22.6243 4.7249 23.0968 4.2146C23.0494 4.2065 23.0209 4.2029 22.9702 4.1939C22.2747 4.06927 21.5814 3.93185 20.8909 3.7817C19.228 3.4235 17.086 2.9066 14.9218 2.2727C14.3696 2.11066 13.8195 1.94115 13.2718 1.7642H17.6077C18.7803 2.06973 19.9591 2.35119 21.1432 2.6084C21.9622 2.7848 22.6612 2.9213 23.1784 3.0122C23.4367 3.0575 23.65 3.0917 23.8057 3.113C23.9617 3.1343 24.091 3.1385 24.0442 3.14L24.046 3.1874C24.4756 2.71624 24.9016 2.24183 25.324 1.7642H26.9236C25.5829 3.3122 24.0697 4.9454 22.5544 6.5648C22.2013 6.9419 21.8614 7.3079 21.5131 7.6808C21.7411 7.73 21.9676 7.7876 22.1911 7.8548C24.8497 8.6231 27.0529 10.7507 27.9502 13.364C28.4116 13.634 28.8172 13.8692 29.1028 14.0096C29.0894 14.0851 29.0927 14.1626 29.1125 14.2367C29.1323 14.3108 29.168 14.3796 29.2173 14.4384C29.2665 14.4972 29.3281 14.5444 29.3975 14.5769C29.467 14.6093 29.5428 14.6261 29.6194 14.6261C29.6323 14.6261 29.644 14.6216 29.6563 14.6207V15.6797C29.6443 15.6788 29.6323 15.6761 29.6194 15.6761H29.6155C29.4763 15.6766 29.343 15.7324 29.2449 15.8312C29.1468 15.9301 29.092 16.0638 29.0925 16.203C29.093 16.3423 29.1488 16.4756 29.2476 16.5737C29.3465 16.6718 29.4802 16.7266 29.6194 16.7261C29.632 16.7261 29.644 16.7234 29.6563 16.7225V17.7797C29.6443 17.7788 29.6323 17.7761 29.6194 17.7761C29.4802 17.7761 29.3467 17.8314 29.2482 17.9299C29.1498 18.0283 29.0944 18.1619 29.0944 18.3011C29.0944 18.4403 29.1498 18.5739 29.2482 18.6723C29.3467 18.7708 29.4802 18.8261 29.6194 18.8261C29.632 18.8261 29.644 18.8234 29.6563 18.8225V21.7364H26.7508C26.8369 21.797 26.9194 21.8624 26.9932 21.9374C27.2692 22.2893 27.5383 22.6463 27.8113 23.0003H30.2464C30.5719 23.0003 30.8359 22.7174 30.8359 22.3688V1.1315C30.8359 0.7829 30.5719 0.5003 30.2464 0.5H1.42544ZM8.14784 1.7639H11.8633C12.8323 2.10269 13.81 2.41629 14.7952 2.7044C16.9732 3.3422 19.1242 3.8612 20.7964 4.2212C21.3286 4.3358 21.7885 4.4273 22.2097 4.5083C21.9214 4.8185 21.6385 5.1278 21.3496 5.4365L21.0325 5.7752C19.0846 5.1653 16.8562 4.5584 13.9903 3.9575C11.9683 3.5339 10.0192 2.7683 8.14784 1.7639ZM19.4668 1.7639H24.7159C24.4474 2.0651 24.1849 2.363 23.9053 2.6702C23.8903 2.6687 23.8822 2.669 23.8669 2.6669C23.6628 2.63768 23.4591 2.60488 23.2561 2.5685C22.747 2.4788 22.0522 2.3435 21.2383 2.1683C20.6466 2.03965 20.0558 1.90484 19.4668 1.7639ZM27.5209 1.7639H29.6569V3.0794C29.6443 3.0785 29.6323 3.0758 29.6197 3.0758H29.6158C29.4766 3.07632 29.3433 3.13213 29.2452 3.23095C29.1471 3.32977 29.0923 3.46351 29.0928 3.60275C29.0933 3.74199 29.1491 3.87532 29.2479 3.97341C29.3468 4.0715 29.4805 4.12632 29.6197 4.1258C29.6323 4.1258 29.6443 4.1231 29.6566 4.1222V5.1794C29.6446 5.1785 29.6326 5.1758 29.6197 5.1758H29.6158C29.5469 5.17606 29.4787 5.18989 29.4151 5.21651C29.3515 5.24313 29.2937 5.28202 29.2452 5.33095C29.1966 5.37988 29.1582 5.4379 29.132 5.50169C29.1059 5.56549 29.0925 5.63381 29.0928 5.70275C29.093 5.77169 29.1069 5.83991 29.1335 5.90351C29.1601 5.96711 29.199 6.02484 29.2479 6.07341C29.2969 6.12198 29.3549 6.16044 29.4187 6.18658C29.4825 6.21273 29.5508 6.22606 29.6197 6.2258C29.6323 6.2258 29.6443 6.2231 29.6566 6.2222V7.2794C29.6446 7.2785 29.6326 7.2758 29.6197 7.2758C29.4805 7.2758 29.347 7.33111 29.2485 7.42957C29.1501 7.52802 29.0947 7.66156 29.0947 7.8008C29.0947 7.94004 29.1501 8.07357 29.2485 8.17203C29.347 8.27049 29.4805 8.3258 29.6197 8.3258C29.6323 8.3258 29.6443 8.3231 29.6566 8.3222V8.7107C29.4193 8.6354 29.1772 8.5601 28.9459 8.4845C28.8868 8.42392 28.8139 8.37853 28.7335 8.35221C28.653 8.32588 28.5674 8.31939 28.4839 8.3333C28.2916 8.2694 28.1068 8.2058 27.9187 8.1419C27.9744 8.07681 28.0133 7.99908 28.032 7.9155C28.0508 7.83192 28.0488 7.74502 28.0262 7.66239C28.0037 7.57976 27.9612 7.50391 27.9026 7.44144C27.844 7.37898 27.771 7.33181 27.69 7.30403C27.609 7.27626 27.5224 7.26873 27.4378 7.28211C27.3532 7.29549 27.2731 7.32936 27.2046 7.38078C27.1361 7.4322 27.0812 7.4996 27.0447 7.57709C27.0083 7.65459 26.9913 7.73984 26.9953 7.8254C26.5675 7.6757 26.1487 7.526 25.7287 7.3766C25.6463 7.31644 25.5481 7.28162 25.4461 7.2764C25.2331 7.2005 25.0162 7.1243 24.8023 7.0484C24.8808 6.93467 24.9112 6.79462 24.887 6.65861C24.8629 6.5226 24.7861 6.40158 24.6733 6.3218L24.1945 6.8348C23.8804 6.7238 23.5468 6.6134 23.2255 6.503C24.7255 4.8992 26.2114 3.2912 27.5209 1.7639ZM29.0389 2.3159C28.6921 2.4017 28.3978 2.5523 28.0975 2.7794C28.1268 2.84322 28.1685 2.90053 28.2202 2.94794C28.272 2.99536 28.3327 3.03192 28.3988 3.05546C28.4649 3.079 28.5351 3.08905 28.6052 3.085C28.6752 3.08096 28.7438 3.0629 28.8067 3.03191C28.8697 3.00092 28.9258 2.95761 28.9718 2.90455C29.0177 2.8515 29.0526 2.78977 29.0742 2.72302C29.0959 2.65626 29.104 2.58584 29.098 2.51591C29.092 2.44599 29.0717 2.37798 29.0389 2.3159ZM27.7129 3.1127C27.4782 3.3324 27.2513 3.56024 27.0325 3.7958C27.0648 3.87657 27.1167 3.94806 27.1834 4.00383C27.2501 4.05961 27.3297 4.09793 27.4149 4.11535C27.5001 4.13277 27.5883 4.12874 27.6716 4.10363C27.7549 4.07851 27.8306 4.03311 27.892 3.97148C27.9534 3.90985 27.9985 3.83394 28.0233 3.75056C28.0481 3.66719 28.0518 3.57896 28.034 3.49381C28.0162 3.40866 27.9776 3.32926 27.9216 3.26273C27.8655 3.19621 27.7938 3.14466 27.7129 3.1127ZM28.5661 4.1258C28.4972 4.12633 28.429 4.14044 28.3655 4.16731C28.302 4.19419 28.2445 4.23331 28.1961 4.28243C28.0984 4.38165 28.0441 4.51561 28.0452 4.65485C28.0463 4.79409 28.1026 4.9272 28.2018 5.02489C28.301 5.12259 28.435 5.17687 28.5742 5.1758C28.7135 5.17473 28.8466 5.11838 28.9443 5.01917C29.042 4.91995 29.0963 4.78599 29.0952 4.64675C29.0941 4.50751 29.0378 4.3744 28.9386 4.2767C28.8393 4.17901 28.7054 4.12473 28.5661 4.1258ZM26.6821 4.1702L26.0053 4.895C26.0444 4.96912 26.1006 5.03282 26.1693 5.08079C26.2379 5.12876 26.3171 5.15959 26.4001 5.17072C26.4832 5.18185 26.5676 5.17294 26.6465 5.14475C26.7254 5.11656 26.7964 5.06991 26.8536 5.00868C26.9108 4.94745 26.9524 4.87343 26.9752 4.7928C26.9979 4.71217 27.001 4.62727 26.9842 4.5452C26.9674 4.46313 26.9313 4.38626 26.8787 4.32102C26.8262 4.25579 26.7588 4.20407 26.6821 4.1702ZM27.5161 5.1758C27.4472 5.17633 27.379 5.19044 27.3155 5.21731C27.252 5.24419 27.1945 5.28331 27.1461 5.33243C27.0977 5.38156 27.0595 5.43973 27.0336 5.50363C27.0077 5.56753 26.9947 5.63591 26.9952 5.70485C26.9957 5.77379 27.0098 5.84196 27.0367 5.90545C27.0636 5.96894 27.1027 6.02652 27.1518 6.07489C27.2009 6.12327 27.2591 6.16149 27.323 6.18739C27.3869 6.21328 27.4553 6.22633 27.5242 6.2258C27.6635 6.22473 27.7966 6.16838 27.8943 6.06917C27.992 5.96995 28.0463 5.83599 28.0452 5.69675C28.0441 5.55751 27.9878 5.4244 27.8886 5.3267C27.7893 5.22901 27.6554 5.17473 27.5161 5.1758ZM25.6798 5.2442L24.9829 5.9909C25.0268 6.05697 25.085 6.11225 25.1533 6.15259C25.2216 6.19293 25.2981 6.21728 25.3771 6.22382C25.4561 6.23035 25.5356 6.2189 25.6096 6.19033C25.6835 6.16175 25.7501 6.11679 25.8042 6.05882C25.8583 6.00085 25.8986 5.93137 25.922 5.85561C25.9454 5.77985 25.9513 5.69977 25.9394 5.62138C25.9274 5.54299 25.8978 5.46834 25.8529 5.40301C25.8079 5.33768 25.7488 5.28339 25.6798 5.2442ZM26.4658 6.2258C26.3266 6.22691 26.1935 6.28329 26.0958 6.38254C25.9982 6.48178 25.9439 6.61576 25.945 6.755C25.9462 6.89424 26.0025 7.02733 26.1018 7.125C26.201 7.22267 26.335 7.27691 26.4742 7.2758C26.6135 7.27473 26.7466 7.21838 26.8443 7.11917C26.942 7.01995 26.9963 6.88599 26.9952 6.74675C26.9941 6.60751 26.9378 6.4744 26.8386 6.37671C26.7393 6.27901 26.6051 6.22473 26.4658 6.2258ZM28.5661 6.2258C28.4972 6.22635 28.429 6.24048 28.3656 6.26737C28.3021 6.29426 28.2445 6.3334 28.1961 6.38254C28.1478 6.43168 28.1096 6.48986 28.0837 6.55377C28.0578 6.61768 28.0448 6.68606 28.0453 6.755C28.0459 6.82394 28.06 6.8921 28.0869 6.95559C28.1138 7.01907 28.1529 7.07664 28.2021 7.125C28.2512 7.17336 28.3094 7.21157 28.3733 7.23744C28.4372 7.26332 28.5056 7.27635 28.5745 7.2758C28.7138 7.27473 28.8469 7.21838 28.9446 7.11917C29.0423 7.01995 29.0966 6.88599 29.0955 6.74675C29.0944 6.60751 29.0381 6.4744 28.9389 6.37671C28.8396 6.27901 28.7054 6.22473 28.5661 6.2258ZM2.01644 6.6002C5.45984 8.6522 8.41274 10.5821 10.1107 14.1671C9.62864 14.7785 9.33734 15.5462 9.33734 16.3781C9.33734 17.3735 9.75194 18.278 10.4149 18.9308C10.0657 19.904 9.65594 20.8298 9.20774 21.7361H7.90934L8.73434 20.3075L7.85774 19.8014L8.17004 19.2599L6.95594 18.5591L5.12144 21.7361H2.01524V11.246L4.32044 12.6206L5.75384 10.2173L2.01554 7.9877L2.01644 6.6002ZM18.4339 11.7254C18.1132 11.8136 17.8025 11.9349 17.5069 12.0875L17.5063 12.0881C16.6681 13.0646 15.9802 13.931 15.5284 14.6276C15.8788 15.1442 16.0659 15.7542 16.0654 16.3784C16.0654 16.9163 15.9283 17.4236 15.6871 17.8673C16.6267 18.602 17.3839 19.5917 18.0601 20.6927C18.268 20.7686 18.4813 20.8289 18.6991 20.873C18.0109 19.6904 17.2369 18.5921 16.2436 17.7389C16.4503 17.2424 16.5411 16.7053 16.5092 16.1685C16.4774 15.6316 16.3237 15.1091 16.0597 14.6405C16.5952 13.8632 17.4412 12.8504 18.4339 11.7254ZM20.9968 11.7506C20.9732 11.9925 20.975 12.2363 21.0022 12.4778C21.0782 12.5123 21.1613 12.5282 21.2447 12.524C21.328 12.5199 21.4092 12.4959 21.4813 12.454C21.5535 12.4122 21.6147 12.3537 21.6596 12.2834C21.7046 12.2131 21.7322 12.1331 21.7399 12.05C21.5002 11.93 21.2518 11.8283 20.9959 11.7506M6.29534 12.4676L5.20844 14.3504L4.47914 15.6134L6.36164 16.7006L7.09124 15.4373L7.83884 15.8693L8.92574 13.9865L8.17814 13.5545L6.29534 12.4676ZM22.2658 12.5258C22.1969 12.5263 22.1287 12.5404 22.0652 12.5673C22.0017 12.5942 21.9442 12.6333 21.8958 12.6824C21.8474 12.7316 21.8092 12.7897 21.7833 12.8536C21.7574 12.9175 21.7444 12.9859 21.7449 13.0548C21.7454 13.1238 21.7595 13.192 21.7864 13.2555C21.8133 13.3189 21.8524 13.3765 21.9015 13.4249C21.9506 13.4733 22.0088 13.5115 22.0727 13.5374C22.1366 13.5633 22.205 13.5763 22.2739 13.5758C22.4132 13.5747 22.5463 13.5184 22.644 13.4192C22.7417 13.32 22.796 13.186 22.7949 13.0467C22.7938 12.9075 22.7375 12.7744 22.6383 12.6767C22.539 12.579 22.4051 12.5247 22.2658 12.5258ZM23.3158 13.5758C23.2469 13.5761 23.1787 13.5899 23.1151 13.6165C23.0515 13.6431 22.9937 13.682 22.9452 13.7309C22.8966 13.7799 22.8582 13.8379 22.832 13.9017C22.8059 13.9655 22.7925 14.0338 22.7928 14.1027C22.793 14.1717 22.8069 14.2399 22.8335 14.3035C22.8601 14.3671 22.899 14.4248 22.9479 14.4734C22.9969 14.522 23.0549 14.5604 23.1187 14.5866C23.1825 14.6127 23.2508 14.6261 23.3197 14.6258C23.6032 14.6258 23.8327 14.4008 23.8429 14.1194C23.7587 13.9526 23.664 13.7913 23.5594 13.6364C23.4844 13.5966 23.4008 13.5758 23.3158 13.5758ZM21.3019 13.5821C21.3058 13.5914 21.3079 13.6004 21.3124 13.6097C21.3067 13.9477 21.2928 14.2855 21.2707 14.6228C21.3976 14.6101 21.5155 14.5517 21.6024 14.4585C21.6893 14.3652 21.7394 14.2436 21.7432 14.1161C21.747 13.9887 21.7043 13.8643 21.6231 13.766C21.542 13.6677 21.4278 13.6024 21.3019 13.5821ZM22.2658 14.6258C22.1969 14.6263 22.1287 14.6404 22.0652 14.6673C22.0017 14.6942 21.9442 14.7333 21.8958 14.7824C21.8474 14.8316 21.8092 14.8897 21.7833 14.9536C21.7574 15.0175 21.7444 15.0859 21.7449 15.1548C21.7454 15.2238 21.7595 15.292 21.7864 15.3554C21.8133 15.4189 21.8524 15.4765 21.9015 15.5249C21.9506 15.5733 22.0088 15.6115 22.0727 15.6374C22.1366 15.6633 22.205 15.6763 22.2739 15.6758C22.4132 15.6747 22.5463 15.6184 22.644 15.5192C22.7417 15.42 22.796 15.286 22.7949 15.1467C22.7938 15.0075 22.7375 14.8744 22.6383 14.7767C22.539 14.679 22.4051 14.6247 22.2658 14.6258ZM28.5658 14.6258C28.4721 14.6268 28.3804 14.6532 28.3003 14.702C28.3555 15.0158 28.3948 15.332 28.4152 15.65C28.4644 15.665 28.5157 15.6758 28.5697 15.6758C28.709 15.6753 28.8423 15.6195 28.9404 15.5207C29.0385 15.4218 29.0933 15.2881 29.0928 15.1488C29.0923 15.0096 29.0365 14.8763 28.9376 14.7782C28.8388 14.6801 28.7051 14.6253 28.5658 14.6258ZM24.0961 14.7044C24.0195 14.751 23.9561 14.8165 23.9121 14.8947C23.868 14.9729 23.8449 15.0611 23.8447 15.1508C23.8447 15.4247 24.0553 15.647 24.3229 15.671C24.2827 15.3415 24.2066 15.0174 24.0961 14.7044ZM23.3158 15.6758C23.2469 15.6763 23.1787 15.6904 23.1152 15.7173C23.0517 15.7442 22.9942 15.7833 22.9458 15.8324C22.8974 15.8816 22.8592 15.9397 22.8333 16.0036C22.8074 16.0675 22.7944 16.1359 22.7949 16.2048C22.7954 16.2738 22.8095 16.342 22.8364 16.4054C22.8633 16.4689 22.9024 16.5265 22.9515 16.5749C23.0006 16.6233 23.0588 16.6615 23.1227 16.6874C23.1866 16.7133 23.255 16.7263 23.3239 16.7258C23.4632 16.7247 23.5963 16.6684 23.694 16.5692C23.7917 16.47 23.846 16.336 23.8449 16.1967C23.8438 16.0575 23.7875 15.9244 23.6883 15.8267C23.589 15.729 23.4551 15.6747 23.3158 15.6758ZM21.3076 15.6827C21.3748 15.8495 21.505 15.9812 21.7408 16.1369C21.7272 16.0246 21.6776 15.9198 21.5996 15.8379C21.5215 15.7561 21.4191 15.7016 21.3076 15.6827ZM28.5658 16.7258C28.5149 16.7268 28.4643 16.7353 28.4158 16.751C28.3974 17.0705 28.3619 17.3887 28.3096 17.7044C28.3867 17.7485 28.4746 17.7758 28.5697 17.7758C28.6387 17.7755 28.7069 17.7617 28.7705 17.7351C28.8341 17.7085 28.8918 17.6696 28.9404 17.6207C28.989 17.5717 29.0274 17.5137 29.0536 17.4499C29.0797 17.3861 29.093 17.3178 29.0928 17.2488C29.0925 17.1799 29.0787 17.1117 29.0521 17.0481C29.0255 16.9845 28.9866 16.9268 28.9376 16.8782C28.8887 16.8296 28.8307 16.7912 28.7669 16.765C28.7031 16.7389 28.6348 16.7255 28.5658 16.7258ZM24.3346 16.7294C24.2021 16.7379 24.0777 16.7965 23.9867 16.8934C23.8958 16.9902 23.845 17.118 23.8447 17.2508C23.8447 17.4548 23.962 17.6297 24.1318 17.7167C24.2338 17.3957 24.3016 17.0645 24.3346 16.7294ZM20.5795 17.2577C19.6111 17.2577 18.8164 18.0527 18.8164 19.0208C18.8164 19.9892 19.6114 20.7833 20.5795 20.7833C21.5476 20.7833 22.342 19.9892 22.342 19.0208C22.342 18.0527 21.5476 17.2577 20.5795 17.2577ZM20.5795 18.1577C20.6931 18.1569 20.8057 18.1786 20.9107 18.2217C21.0158 18.2648 21.1112 18.3283 21.1915 18.4087C21.2718 18.489 21.3353 18.5845 21.3783 18.6896C21.4213 18.7947 21.443 18.9072 21.442 19.0208C21.443 19.1343 21.4213 19.2469 21.3783 19.3519C21.3352 19.457 21.2717 19.5525 21.1915 19.6327C21.1112 19.713 21.0157 19.7765 20.9107 19.8195C20.8056 19.8625 20.6931 19.8842 20.5795 19.8833C20.466 19.8842 20.3534 19.8625 20.2483 19.8195C20.1432 19.7765 20.0477 19.713 19.9674 19.6328C19.8871 19.5525 19.8235 19.4571 19.7804 19.352C19.7374 19.2469 19.7156 19.1343 19.7164 19.0208C19.7156 18.9072 19.7373 18.7946 19.7803 18.6895C19.8234 18.5844 19.887 18.4889 19.9673 18.4085C20.0476 18.3282 20.1431 18.2647 20.2482 18.2216C20.3533 18.1785 20.4659 18.1568 20.5795 18.1577Z" fill="#E7E6D4"/>
<path d="M20.6746 8.7485C18.748 8.4875 16.7221 8.9591 15.0586 10.226C11.7316 12.7592 11.0845 17.5358 13.618 20.8628C15.9895 23.9768 20.3201 24.7277 23.5931 22.7339L24.218 23.5547C24.1571 23.6962 24.1285 23.8364 24.134 23.9656C24.1395 24.0948 24.179 24.2099 24.2498 24.3029L28.7858 30.2594C28.9154 30.4296 29.1416 30.5153 29.4146 30.4977C29.6876 30.48 29.9849 30.3604 30.2414 30.1652C30.3684 30.0685 30.4815 29.9562 30.5743 29.8346C30.667 29.7129 30.7376 29.5845 30.782 29.4565C30.8265 29.3284 30.8438 29.2034 30.8331 29.0885C30.8223 28.9736 30.7838 28.871 30.7196 28.7867L26.1835 22.8302C26.1127 22.7372 26.0122 22.6686 25.8891 22.629C25.7661 22.5893 25.6233 22.5797 25.4707 22.6007L24.8455 21.7796C27.6385 19.1546 28.0667 14.7806 25.6954 11.6666C24.4285 10.0028 22.6012 9.0095 20.6746 8.7485ZM20.4496 10.4096C21.2184 10.5134 21.9591 10.7681 22.6291 11.1592C23.2991 11.5503 23.8851 12.07 24.3535 12.6884C24.8248 13.3045 25.1698 14.0077 25.3686 14.7575C25.5674 15.5073 25.6161 16.289 25.512 17.0577C25.4079 17.8264 25.153 18.567 24.7619 19.2369C24.3708 19.9068 23.8512 20.4929 23.233 20.9615C22.6169 21.4327 21.9138 21.7776 21.164 21.9764C20.4142 22.1752 19.6325 22.2239 18.8639 22.1198C18.0952 22.0157 17.3547 21.7608 16.6848 21.3697C16.0149 20.9787 15.4288 20.4592 14.9602 19.841C14.489 19.2249 14.1441 18.5218 13.9453 17.772C13.7465 17.0222 13.6977 16.2406 13.8018 15.4719C13.9059 14.7032 14.1607 13.9627 14.5518 13.2928C14.9428 12.6229 15.4623 12.0368 16.0804 11.5682C16.6964 11.0966 17.3995 10.7515 18.1494 10.5526C18.8992 10.3538 19.681 10.3052 20.4496 10.4096Z" fill="#E7E6D4"/>
</g>
<defs>
<clipPath id="clip0_272_492">
<rect width="30" height="30" fill="white" transform="translate(0.835938 0.5)"/>
</clipPath>
</defs>
</svg>
