<svg width="47" height="47" viewBox="0 0 47 47" fill="none" xmlns="http://www.w3.org/2000/svg">
<circle cx="23.451" cy="23.451" r="21.951" stroke="#5F3F2F" stroke-width="3" stroke-dasharray="8 8"/>
<path d="M17.1501 24.5C16.6901 24.5 16.3501 24.08 16.4401 23.63C16.4801 23.45 16.5001 23.24 16.5001 23C16.5001 22 15.5001 20.15 15.5001 19.38C15.5001 19.09 15.5301 18.79 15.6701 18.45C15.7241 18.3166 15.8167 18.2025 15.9361 18.1223C16.0555 18.0421 16.1963 17.9995 16.3401 18C16.7901 18 17.1401 18.42 17.0501 18.86C17.0101 19.04 17.0001 19.21 17.0001 19.38C17.0001 20.15 18.0001 22 18.0001 23C18.0001 23.42 17.9201 23.76 17.8301 24.01C17.7301 24.31 17.4601 24.5 17.1501 24.5ZM23.6501 24.5C23.9601 24.5 24.2301 24.31 24.3301 24.01C24.4201 23.76 24.5001 23.42 24.5001 23C24.5001 22 23.5001 20.15 23.5001 19.38C23.5001 19.21 23.5101 19.04 23.5401 18.87C23.5618 18.7655 23.5601 18.6574 23.5351 18.5537C23.5101 18.4499 23.4624 18.3529 23.3955 18.2697C23.3286 18.1865 23.2441 18.1192 23.1481 18.0726C23.052 18.026 22.9469 18.0012 22.8401 18C22.6966 18.0008 22.5564 18.0439 22.4373 18.124C22.3181 18.204 22.2252 18.3174 22.1701 18.45C22.0301 18.79 22.0001 19.08 22.0001 19.38C22.0001 20.15 23.0001 22 23.0001 23C23.0001 23.24 22.9801 23.45 22.9401 23.63C22.8501 24.08 23.1901 24.5 23.6501 24.5ZM20.4001 24.5C20.7101 24.5 20.9801 24.31 21.0801 24.01C21.1701 23.76 21.2501 23.42 21.2501 23C21.2501 22 20.2501 20.15 20.2501 19.38C20.2501 19.21 20.2601 19.04 20.2901 18.87C20.3118 18.7655 20.3101 18.6574 20.2851 18.5537C20.2601 18.4499 20.2124 18.3529 20.1455 18.2697C20.0786 18.1865 19.9941 18.1192 19.8981 18.0726C19.802 18.026 19.6969 18.0012 19.5901 18C19.2901 18 19.0301 18.18 18.9201 18.45C18.7801 18.79 18.7501 19.08 18.7501 19.38C18.7501 20.15 19.7501 22.01 19.7501 23C19.7501 23.24 19.7301 23.45 19.6901 23.63C19.6001 24.08 19.9401 24.5 20.4001 24.5ZM31.4601 17.37C31.5941 17.388 31.7303 17.3783 31.8604 17.3417C31.9905 17.305 32.1118 17.2421 32.2167 17.1569C32.3216 17.0717 32.4079 16.9659 32.4704 16.846C32.5329 16.7262 32.5703 16.5948 32.5801 16.46C32.5901 16.28 32.6001 16.12 32.6001 16C32.6001 14.35 31.2501 13 29.6001 13C28.0601 13 26.7901 14.16 26.6201 15.65L25.5301 26H14.9901C14.3901 26 13.9201 26.54 14.0101 27.14C14.5401 30.46 17.3901 33 20.7501 33C24.2301 33 27.0901 30.27 27.4601 26.77L28.6101 15.9C28.6601 15.39 29.0801 15 29.6001 15C30.1501 15 30.6001 15.45 30.6001 16C30.6001 16.07 30.5901 16.18 30.5901 16.31C30.5501 16.84 30.9301 17.3 31.4601 17.37Z" fill="#5F3F2F"/>
</svg>
