<svg width="47" height="47" viewBox="0 0 47 47" fill="none" xmlns="http://www.w3.org/2000/svg">
<circle cx="23.451" cy="23.451" r="21.951" stroke="#5F3F2F" stroke-width="3" stroke-dasharray="8 8"/>
<path d="M19.192 19H20.192V16.385H19.192V19ZM19.192 27.116H20.192V22.769H19.192V27.116ZM17.616 32C17.1713 32 16.791 31.8417 16.475 31.525C16.159 31.2083 16.0007 30.8287 16 30.386V21.386H30V30.386C30 30.8327 29.8417 31.2137 29.525 31.529C29.209 31.8437 28.829 32.001 28.385 32.001L17.616 32ZM16 20.385V15.615C16 15.171 16.1583 14.791 16.475 14.475C16.7917 14.159 17.1717 14.0007 17.615 14H28.385C28.829 14 29.209 14.1583 29.525 14.475C29.841 14.7917 29.9993 15.1717 30 15.615V20.385H16Z" fill="#5F3F2F"/>
</svg>
