<svg width="25" height="25" viewBox="0 0 25 25" fill="none" xmlns="http://www.w3.org/2000/svg">
<path d="M19.3479 10.577C19.3479 11.316 18.7229 11.915 17.9519 11.915C17.1819 11.915 16.5569 11.315 16.5569 10.577C16.5569 9.838 17.1819 9.24 17.9519 9.24C18.7219 9.24 19.3479 9.838 19.3479 10.577Z" fill="#E7E6D4"/>
<path fill-rule="evenodd" clip-rule="evenodd" d="M18.8719 6.032C17.8119 5.896 16.4579 5.896 14.7489 5.896H10.9229C9.21294 5.896 7.85894 5.896 6.79994 6.032C5.70994 6.173 4.82594 6.469 4.12994 7.136C3.43394 7.804 3.12494 8.65 2.97794 9.696C2.83594 10.71 2.83594 12.008 2.83594 13.647V13.747C2.83594 15.386 2.83594 16.684 2.97794 17.7C3.12494 18.745 3.43394 19.591 4.12994 20.258C4.82594 20.926 5.70994 21.222 6.79994 21.362C7.85994 21.5 9.21394 21.5 10.9229 21.5H14.7489C16.4589 21.5 17.8129 21.5 18.8719 21.363C19.9619 21.223 20.8459 20.927 21.5419 20.259C22.2379 19.592 22.5469 18.746 22.6939 17.701C22.8359 16.685 22.8359 15.387 22.8359 13.748V13.648C22.8359 12.008 22.8359 10.711 22.6939 9.695C22.5469 8.65 22.2379 7.804 21.5419 7.136C20.8459 6.469 19.9619 6.173 18.8719 6.032ZM6.98594 7.358C6.04994 7.478 5.51094 7.705 5.11594 8.082C4.72294 8.46 4.48694 8.976 4.36094 9.873C4.26094 10.593 4.23794 11.493 4.23294 12.669L4.70294 12.274C5.82794 11.331 7.52194 11.385 8.57794 12.397L12.5679 16.222C12.7657 16.4085 13.0209 16.5223 13.2917 16.5448C13.5626 16.5673 13.8331 16.4972 14.0589 16.346L14.3369 16.159C14.9891 15.7229 15.7656 15.5114 16.5488 15.5565C17.3321 15.6016 18.0792 15.9009 18.6769 16.409L21.0839 18.487C21.1819 18.223 21.2569 17.907 21.3109 17.522C21.4389 16.606 21.4409 15.398 21.4409 13.698C21.4409 11.998 21.4389 10.79 21.3109 9.873C21.1849 8.976 20.9489 8.46 20.5549 8.083C20.1619 7.705 19.6219 7.479 18.6859 7.358C17.7299 7.235 16.4699 7.233 14.6959 7.233H10.9759C9.20194 7.233 7.94194 7.235 6.98594 7.358Z" fill="#E7E6D4"/>
<path d="M17.922 3.11C17.062 3 15.968 3 14.603 3H11.513C10.149 3 9.05402 3 8.19402 3.11C7.30402 3.225 6.56202 3.468 5.97302 4.03C5.64796 4.34202 5.40007 4.72549 5.24902 5.15C5.75302 4.92 6.32302 4.784 6.96302 4.7C8.04702 4.56 9.43302 4.56 11.183 4.56H15.097C16.847 4.56 18.232 4.56 19.317 4.7C19.875 4.773 20.381 4.886 20.836 5.066C20.6837 4.6746 20.4475 4.32131 20.144 4.031C19.555 3.468 18.813 3.225 17.922 3.111" fill="#E7E6D4"/>
</svg>
