<svg width="25" height="25" viewBox="0 0 25 25" fill="none" xmlns="http://www.w3.org/2000/svg">
<path d="M12.3059 4.34101C12.4465 4.20056 12.6371 4.12167 12.8359 4.12167C13.0346 4.12167 13.2253 4.20056 13.3659 4.34101L22.0559 13.031C22.1251 13.1026 22.2079 13.1597 22.2994 13.199C22.3909 13.2382 22.4894 13.2589 22.5889 13.2597C22.6885 13.2605 22.7873 13.2415 22.8794 13.2037C22.9716 13.166 23.0553 13.1102 23.1257 13.0398C23.1961 12.9693 23.2517 12.8856 23.2894 12.7934C23.327 12.7012 23.346 12.6024 23.3451 12.5028C23.3442 12.4033 23.3234 12.3049 23.2841 12.2134C23.2447 12.1219 23.1875 12.0392 23.1159 11.97L14.4269 3.28001C14.2179 3.07107 13.9699 2.90534 13.6969 2.79226C13.4239 2.67919 13.1314 2.62099 12.8359 2.62099C12.5404 2.62099 12.2478 2.67919 11.9748 2.79226C11.7019 2.90534 11.4538 3.07107 11.2449 3.28001L2.55488 11.97C2.48328 12.0392 2.42618 12.122 2.38692 12.2135C2.34766 12.3051 2.32702 12.4035 2.3262 12.5031C2.32538 12.6026 2.3444 12.7014 2.38216 12.7936C2.41991 12.8857 2.47564 12.9694 2.54609 13.0398C2.61654 13.1102 2.70031 13.1658 2.7925 13.2035C2.88469 13.2412 2.98346 13.2601 3.08304 13.2592C3.18262 13.2583 3.28103 13.2375 3.37251 13.1982C3.464 13.1588 3.54673 13.1017 3.61588 13.03L12.3059 4.34101Z" fill="#E7E6D4"/>
<path d="M12.8359 5.93201L20.9949 14.091C21.0249 14.1203 21.0553 14.149 21.0859 14.177V20.375C21.0859 21.41 20.2459 22.25 19.2109 22.25H15.8359C15.637 22.25 15.4463 22.171 15.3056 22.0303C15.165 21.8897 15.0859 21.6989 15.0859 21.5V17C15.0859 16.8011 15.0069 16.6103 14.8663 16.4697C14.7256 16.329 14.5349 16.25 14.3359 16.25H11.3359C11.137 16.25 10.9463 16.329 10.8056 16.4697C10.665 16.6103 10.5859 16.8011 10.5859 17V21.5C10.5859 21.6989 10.5069 21.8897 10.3663 22.0303C10.2256 22.171 10.0348 22.25 9.83594 22.25H6.46094C5.96366 22.25 5.48674 22.0525 5.13511 21.7008C4.78348 21.3492 4.58594 20.8723 4.58594 20.375V14.177L4.67694 14.091L12.8359 5.93201Z" fill="#E7E6D4"/>
</svg>
